# AST/ASF file generated using VICON BodyLanguage
# -----------------------------------------------
:version 1.10
:name VICON
:units
  mass 1.0
  length 0.45
  angle deg
:documentation
   .ast/.asf automatically generated from VICON data using
   VICON BodyBuilder and BodyLanguage model FoxedUp or BRILLIANT.MOD
:root
   order TX TY TZ RX RY RZ
   axis XYZ
   position 0 0 0  
   orientation 0 0 0 
:bonedata
  begin
     id 1 
     name lhipjoint
     direction 0.588788 -0.725889 0.355548 
     length 2.37778 
     axis 0 0 0  XYZ
  end
  begin
     id 2 
     name lfemur
     direction 0.34202 -0.939693 0  
     length 6.86393  
     axis 0 0 20  XYZ
    dof rx ry rz
    limits (-160.0 20.0)
           (-70.0 70.0)
           (-60.0 70.0)
  end
  begin
     id 3 
     name ltibia
     direction 0.34202 -0.939693 0   
     length 7.32851   
     axis 0 0 20   XYZ
    dof rx
    limits (-10.0 170.0)
  end
  begin
     id 4 
     name lfoot
     direction 0.0626533 -0.172138 0.983078   
     length 1.98929   
     axis -90 7.62852e-016 20   XYZ
    dof rx rz
    limits (-45.0 90.0)
           (-70.0 20.0)
  end
  begin
     id 5 
     name ltoes
     direction 1.53647e-011 -4.21734e-011 1   
     length 1.00479   
     axis -90 7.62852e-016 20   XYZ
    dof rx
    limits (-90.0 20.0)
  end
  begin
     id 6 
     name rhipjoint
     direction -0.59141 -0.724168 0.354705   
     length 2.38343  
     axis 0 0 0  XYZ 
  end
  begin
     id 7 
     name rfemur
     direction -0.34202 -0.939693 0   
     length 6.95589   
     axis 0 0 -20   XYZ
    dof rx ry rz
    limits (-160.0 20.0)
           (-70.0 70.0)
           (-70.0 60.0)
  end
  begin
     id 8 
     name rtibia
     direction -0.34202 -0.939693 0   
     length 7.32327   
     axis 0 0 -20   XYZ
    dof rx
    limits (-10.0 170.0)
 end
 begin
     id 9 
     name rfoot
     direction -0.0660461 -0.18146 0.981178   
     length 1.85272  
     axis -90 -7.62852e-016 -20   XYZ
    dof rx rz
    limits (-45.0 90.0)
           (-20.0 70.0)
  end
  begin
     id 10 
     name rtoes
     direction -1.53586e-011 -4.21988e-011 1   
     length 0.93746   
     axis -90 -7.62852e-016 -20   XYZ
    dof rx
    limits (-90.0 20.0)
  end
  begin
     id 11 
     name lowerback
     direction -0.0107982 0.991059 0.13299   
     length 1.98691   
     axis 0 0 0   XYZ
    dof rx ry rz
    limits (-20.0 45.0)
           (-30.0 30.0)
           (-30.0 30.0)
  end
  begin
     id 12 
     name upperback
     direction 0.0076296 0.999916 0.0104576   
     length 1.99501   
     axis 0 0 0   XYZ
    dof rx ry rz
    limits (-20.0 45.0)
           (-30.0 30.0)
           (-30.0 30.0)
  end
  begin
     id 13 
     name thorax
     direction 0.01176 0.998615 -0.0512909   
     length 2.03144   
     axis 0 0 0   XYZ
    dof rx ry rz
    limits (-20.0 45.0)
           (-30.0 30.0)
           (-30.0 30.0)
  end
  begin
     id 14 
     name lowerneck
     direction -0.0171909 0.999644 0.0204011   
     length 1.71818   
     axis 0 0 0   XYZ
    dof rx ry rz
    limits (-20.0 45.0)
           (-30.0 30.0)
           (-30.0 30.0)
  end
  begin
     id 15 
     name upperneck
     direction 0.0250902 0.997482 -0.0663316   
     length 1.66199   
     axis 0 0 0   XYZ
    dof rx ry rz
    limits (-20.0 45.0)
           (-30.0 30.0)
           (-30.0 30.0)
  end
  begin
     id 16
     name head
     direction 0.00881535 0.99956 -0.0283365  
     length 1.81545  
     axis 0 0 0   XYZ
    dof rx ry rz
    limits (-20.0 45.0)
           (-30.0 30.0)
           (-30.0 30.0)
  end
  begin
     id 17 
     name lclavicle
     direction 0.840411 0.486876 -0.238035  
     length 3.30409  
     axis 0 0 0   XYZ
    dof ry rz
    limits (-20.0 10.0)
           (0.0 20.0)
  end
  begin
     id 18 
     name lhumerus
     direction 1 -4.48977e-011 -5.16239e-027   
     length 4.62672   
     axis 180 -30 -90   XYZ
    dof rx ry rz
    limits (-60.0 90.0)
           (-90.0 90.0)
           (-90.0 90.0)
  end
  begin
     id 19
     name lradius
     direction 1 -4.48977e-011 -8.71171e-027   
     length 3.11018   
     axis 180 -30 -90   XYZ
    dof rx
    limits (-10.0 170.0)
  end
  begin
     id 20
     name lwrist
     direction 1 -4.48912e-011 -1.03764e-026   
     length 1.55509   
     axis 9.09556e-015 90 90   XYZ
    dof ry
    limits (-180.0 0.0)
 end
  begin
     id 21 
     name lhand
     direction 1 -4.49072e-011 -2.07528e-026   
     length 0.743834   
     axis 1.3242e-014 90 90   XYZ
    dof rx rz
    limits (-90.0 90.0)
           (-45.0 45.0)
  end
  begin
     id 22 
     name lfingers
     direction 1 -4.48909e-011 -4.15056e-026   
     length 0.599698   
     axis 2.64841e-014 90 90   XYZ
    dof rx
    limits (0.0 90.0)
  end
  begin
     id 23
     name lthumb
     direction 0.707107 -6.35013e-011 0.707107   
     length 0.86105   
     axis -90 45 2.85299e-015   XYZ
    dof rx rz
    limits (-45.0 45.0)
           (-45.0 45.0)
  end
  begin
     id 24 
     name rclavicle
     direction -0.835208 0.500237 -0.228452   
     length 3.2716  
     axis 0 0 0   XYZ 
    dof ry rz
    limits (-10.0 20.0)
           (-20.0 0.0)
  end
  begin
     id 25 
     name rhumerus
     direction -1 -4.48978e-011 -5.1953e-028  
     length 4.55919   
     axis 180 30 90   XYZ
    dof rx ry rz
    limits (-90.0 60.0)
           (-90.0 90.0)
           (-90.0 90.0)
  end
  begin
     id 26 
     name rradius
     direction -1 -4.48961e-011 -5.99546e-027   
     length 3.22748   
     axis 180 30 90   XYZ
    dof rx
    limits (-10.0 170.0)
  end
  begin
     id 27 
     name rwrist
     direction -1 -4.48986e-011 -1.03764e-026   
     length 1.61374   
     axis 9.09556e-015 -90 -90   XYZ
    dof ry
    limits (-180.0 0.0)
  end
  begin
     id 28
     name rhand
     direction -1 -4.4899e-011 -2.07528e-026   
     length 0.700882   
     axis 1.3242e-014 -90 -90   XYZ
    dof rx rz
    limits (-90.0 90.0)
           (-45.0 45.0)
  end
  begin
     id 29
     name rfingers
     direction -1 -4.48991e-011 -4.15056e-026   
     length 0.565069   
     axis 2.64841e-014 -90 -90   XYZ
    dof rx
    limits (0.0 90.0)
  end
  begin
     id 30
     name rthumb
     direction -0.707107 -6.34804e-011 0.707107   
     length 0.811329   
     axis -90 -45 -2.85299e-015   XYZ
    dof rx rz
    limits (-45.0 45.0)
           (-45.0 45.0)
  end
:hierarchy
  begin
    root lhipjoint rhipjoint lowerback
    lhipjoint lfemur
    lfemur ltibia
    ltibia lfoot
    lfoot ltoes
    rhipjoint rfemur
    rfemur rtibia
    rtibia rfoot
    rfoot rtoes
    lowerback upperback
    upperback thorax
    thorax lowerneck lclavicle rclavicle
    lowerneck upperneck
    upperneck head
    lclavicle lhumerus
    lhumerus lradius
    lradius lwrist
    lwrist lhand lthumb
    lhand lfingers
    rclavicle rhumerus
    rhumerus rradius
    rradius rwrist
    rwrist rhand rthumb
    rhand rfingers
  end

#!OML:ASF F:\VICON\USERDATA\INSTALL\SteveWalk\SteveWalk.ASF
:FULLY-SPECIFIED
:DEGREES
225
root -0.10736 16.0069 7.16507 17.4205 7.23633 3.33286
lowerback -15.0788 -3.7547 -1.97788
upperback -5.18113 -4.68727 0.713111
thorax 3.15834 -2.31175 1.03517
lowerneck -4.32913 -0.72377 -0.373049
upperneck 7.69962 -1.12081 2.17832
head 3.24844 -0.484692 0.727531
rclavicle 4.18092e-014 5.96354e-015
rhumerus -85.5792 -35.2471 -15.1339
rradius 11.2886
rwrist 47.917
rhand -10.4398 -34.5605
rfingers 7.12502
rthumb 15.5601 296.045
lclavicle 4.18092e-014 5.96354e-015
lhumerus -16.6124 -9.71256 82.3182
lradius 52.4419
lwrist 13.9199
lhand -20.4983 -18.2305
lfingers 7.12502
lthumb 5.85877 11.6685
rfemur -49.0684 -5.09791 18.7752
rtibia 17.9647
rfoot -10.4434 2.3471
rtoes -30.7069
lfemur 0.352954 1.22758 -22.0336
ltibia 20.2324
lfoot -21.7465 -8.04159
ltoes -23.5598
226
root -0.114453 15.9822 7.41398 17.2663 7.13367 2.91775
lowerback -15.0816 -3.69212 -1.46264
upperback -5.17985 -4.68881 0.929591
thorax 3.14014 -2.31362 0.973135
lowerneck -4.41246 -0.640981 -0.598199
upperneck 7.69891 -0.992959 2.17893
head 3.26416 -0.427391 0.772561
rclavicle -6.69721e-014 7.95139e-015
rhumerus -85.8885 -35.1331 -14.2807
rradius 11.2796
rwrist 48.3145
rhand -10.9232 -33.624
rfingers 7.12502
rthumb 15.0945 296.946
lclavicle -6.69721e-014 7.95139e-015
lhumerus -17.1251 -8.97439 82.3642
lradius 53.6028
lwrist 14.1152
lhand -20.397 -17.7889
lfingers 7.12502
lthumb 5.95657 12.1074
rfemur -49.0216 -4.4612 19.0249
rtibia 19.4045
rfoot -10.5029 2.52665
rtoes -25.8967
lfemur 1.23233 0.89155 -21.4674
ltibia 20.4618
lfoot -20.6862 -8.05914
ltoes -25.3667
227
root -0.116336 15.9795 7.6777 16.8634 8.02689 2.83852
lowerback -14.9896 -3.97305 -1.04724
upperback -5.05188 -5.12483 1.03564
thorax 3.21375 -2.53132 0.774762
lowerneck -4.63145 -0.553738 -0.567672
upperneck 7.80642 -0.863888 1.98124
head 3.33923 -0.368332 0.708554
rclavicle 3.30014e-017 -3.97569e-015
rhumerus -86.4473 -35.1679 -13.1244
rradius 11.3486
rwrist 48.9726
rhand -11.2133 -33.4557
rfingers 7.12502
rthumb 14.815 297.094
lclavicle 3.30014e-017 -3.97569e-015
lhumerus -17.4712 -8.35733 82.3832
lradius 54.3497
lwrist 14.1407
lhand -20.8021 -17.6948
lfingers 7.12502
lthumb 5.56538 12.2121
rfemur -48.4553 -4.72201 19.1496
rtibia 21.1013
rfoot -10.4228 2.14479
rtoes -17.5252
lfemur 2.34387 -0.22677 -20.91
ltibia 20.6677
lfoot -19.418 -8.36366
ltoes -26.771
228
root -0.107218 15.9758 7.92983 16.9181 7.65933 2.54491
lowerback -15.1599 -3.77085 -0.373237
upperback -5.17541 -4.95662 1.10995
thorax 3.12138 -2.44945 0.501406
lowerneck -4.68992 -0.484713 -0.406468
upperneck 7.85032 -0.754807 1.622
head 3.36007 -0.323044 0.567599
rclavicle -3.49147e-014 -1.07344e-014
rhumerus -88.3578 -35.3783 -9.43728
rradius 11.1915
rwrist 51.7058
rhand -11.1755 -33.7399
rfingers 7.12502
rthumb 14.8514 296.812
lclavicle -3.49147e-014 -1.07344e-014
lhumerus -17.9753 -7.70485 82.4848
lradius 54.9369
lwrist 14.1722
lhand -20.9728 -18.54
lfingers 7.12502
lthumb 5.40063 11.3712
rfemur -48.9153 -5.091 20.1188
rtibia 23.0124
rfoot -7.9177 2.61664
rtoes -28.2338
lfemur 2.96436 -0.729715 -20.7608
ltibia 20.9496
lfoot -17.866 -8.11865
ltoes -27.2822
229
root -0.106118 15.9797 8.18569 16.9765 7.23189 2.18114
lowerback -15.2731 -3.55359 0.217246
upperback -5.34814 -4.76056 1.26747
thorax 2.96315 -2.35436 0.371414
lowerneck -4.6525 -0.416283 -0.382601
upperneck 7.85611 -0.638309 1.30258
head 3.35117 -0.277278 0.464074
rclavicle 2.34845e-014 1.86858e-014
rhumerus -89.513 -35.348 -6.90167
rradius 10.9639
rwrist 53.6512
rhand -10.9329 -33.2463
rfingers 7.12502
rthumb 15.0851 297.323
lclavicle 2.34845e-014 1.86858e-014
lhumerus -18.7626 -6.93618 82.7082
lradius 55.589
lwrist 14.0111
lhand -20.8109 -19.2019
lfingers 7.12502
lthumb 5.55693 10.7052
rfemur -49.4203 -4.8615 20.6488
rtibia 24.9895
rfoot -6.63951 3.61953
rtoes -28.298
lfemur 3.41825 -1.18417 -20.548
ltibia 21.5582
lfoot -16.349 -7.97259
ltoes -27.8281
230
root -0.123572 15.9725 8.43183 17.0563 6.68765 1.88645
lowerback -15.2684 -3.38385 0.438311
upperback -5.50516 -4.57566 1.48218
thorax 2.79448 -2.26369 0.510717
lowerneck -4.75898 -0.330582 -0.309833
upperneck 7.9214 -0.494883 0.887237
head 3.39045 -0.219941 0.322043
rclavicle 1.47225e-014 -2.62396e-014
rhumerus -89.2734 -35.3641 -6.80123
rradius 10.9603
rwrist 53.7801
rhand -10.547 -32.919
rfingers 7.12502
rthumb 15.4568 297.679
lclavicle 1.47225e-014 -2.62396e-014
lhumerus -19.6295 -5.99041 82.9404
lradius 56.2621
lwrist 13.7621
lhand -20.4242 -19.39
lfingers 7.12502
lthumb 5.93024 10.507
rfemur -49.8055 -3.5799 20.4012
rtibia 26.8049
rfoot -5.81257 3.72026
rtoes -25.6257
lfemur 3.42055 -1.49679 -20.3766
ltibia 22.8191
lfoot -14.7642 -7.89826
ltoes -28.9796
